# xmcd
#
# Track frame offsets:
# 150
# 13630
# 28491
# 40103
# 56786
# 70744
# 86357
# 102658
# 112669
# 125770
# 141296
#
# Disc length: 2078 seconds
#
#
# Revision: 0
# Processed by: cddbd v1.5.1PL2 Copyright (c) Steve Scherf et al.
# Submitted via: FreeRIP 2.945 
#
DISCID=98081c0b
DTITLE=Marco e Montenegro - Pergunta sem resposta
DYEAR=2006
DGENRE=Sertaneja
TTITLE0=Leilão
TTITLE1=Pergunta sem resposta
TTITLE2=Chorando se foi
TTITLE3=Perdidos de amor
TTITLE4=Mais
TTITLE5=Doida
TTITLE6=Broche brilhante
TTITLE7=Mil vidas
TTITLE8=Declaração de amor
TTITLE9=Volta lá pro seu lugar
TTITLE10=Amor infinito
EXTD=CD Promocional\n\nEnviado por: denner++
EXTT0=
EXTT1=
EXTT2=
EXTT3=
EXTT4=
EXTT5=
EXTT6=
EXTT7=
EXTT8=
EXTT9=
EXTT10=
PLAYORDER=
